<svg xmlns="http://www.w3.org/2000/svg" viewBox="0 0 32 32">
  <defs>
    <linearGradient id="g" x1="0" y1="0" x2="1" y2="1">
      <stop offset="0" stop-color="#008FD2"/>
      <stop offset="0.5" stop-color="#B25EC5"/>
      <stop offset="1" stop-color="#51C672"/>
    </linearGradient>
  </defs>
  <rect width="32" height="32" rx="9" fill="url(#g)"/>
  <path d="M16 7c2.6 0 4.2 1.6 4.2 3.7 0 1.5-.8 2.6-2 3.1 1.5.5 2.5 1.7 2.5 3.4 0 2.4-1.9 4.1-4.9 4.1h-5.3V7H16zm-2.6 2.5v3h2.3c1.1 0 1.8-.6 1.8-1.5s-.7-1.5-1.8-1.5h-2.3zm0 5.2v3.3h2.6c1.2 0 1.9-.6 1.9-1.6 0-1-.7-1.7-1.9-1.7h-2.6z" fill="#fff"/>
</svg>
